<svg width="378" height="378" version="1.1" viewBox="0 0 100.01 100.01" xmlns="http://www.w3.org/2000/svg">
 <g transform="rotate(208.2 50.104 49.669)" stroke-width=".24249" aria-label="S H U T O  S U G A N U M A   •   S H U T O  S U G A N U M A   •    ">
  <path d="m99.605 52.719q0.06818-0.19532 0.07689-0.34663 0.03159-0.54848-0.28924-0.90853-0.31192-0.35004-0.87931-0.38272-0.17022-0.0098-0.36589 0.09278-0.18621 0.10313-0.36841 0.30137-0.18274 0.2077-0.35093 0.49214-0.16873 0.2939-0.31236 0.64617-0.13418 0.35281-0.34019 0.63508-0.1971 0.29226-0.4455 0.48669-0.23948 0.20443-0.5108 0.30266t-0.54556 0.08244q-0.39718-0.02287-0.71053-0.18324-0.3139-0.15091-0.52615-0.41931-0.2128-0.25894-0.31504-0.62537-0.10278-0.35697-0.07773-0.79198 0.02832-0.49174 0.1823-1.0237 0.15398-0.53194 0.3849-0.91714l1.3752 0.17408-0.12002 0.10694q-0.06783 0.02456-0.15457 0.04803-0.07729 0.02401-0.14457 0.03911-0.49209 0.14244-0.8354 0.50219-0.3344 0.36975-0.41891 0.84876-0.01327 0.06565-0.01654 0.12239-0.0038 0.0662-0.0071 0.12294-0.03268 0.5674 0.25033 0.92526 0.29192 0.36787 0.80257 0.39728 0.19859 0.01144 0.40426-0.10006 0.20512-0.10204 0.39733-0.3092 0.20166-0.20661 0.38039-0.50942 0.18765-0.29281 0.33182-0.65453 0.26726-0.68672 0.73623-1.0867 0.47788-0.38995 0.99799-0.35999 0.40663 0.02342 0.73945 0.17542 0.33227 0.16146 0.55452 0.42094 0.23171 0.26003 0.34395 0.61755 0.1117 0.36698 0.08719 0.79252-0.01906 0.33098-0.17651 0.75836-0.15744 0.42738-0.39673 0.79312l-1.3752-0.17408 0.12001-0.10694q0.15403-0.03857 0.32806-0.09496 0.18294-0.04639 0.32752-0.0855 0.3086-0.08659 0.53917-0.30103 0.24003-0.21389 0.33202-0.49323z"/>
  <path d="m97.554 65.077q-0.01832-0.0048-0.08439-0.05155-0.05691-0.04433-0.04534-0.05109l0.02166-0.08245q0.04861-0.22228-0.0802-0.40302-0.11964-0.17834-0.38532-0.24814l-4.4433-1.1674q-0.26568-0.0698-0.46669 0.02429-0.20101 0.09409-0.25878 0.31397l-0.02166 0.08245q-0.01832-0.0048-0.02989 0.0019-0.02073 0.0043-0.02989 0.0019 0 0-0.02073 0.0043-0.03905-4.67e-4 -0.07135 0.01063l0.40437-1.5391 0.16849-0.64129q0.0092 0.0024 0.01592 0.01398 0.0092 0.0024 0.04099 0.03036 0.02508 0.01638 0.05691 0.04433l-0.02407 0.09161q-0.05777 0.21987 0.07344 0.39146 0.1288 0.18074 0.39448 0.25055l2.1804 0.57285 0.81836-3.1149-2.1804-0.57285q-0.26568-0.0698-0.46669 0.02429-0.20101 0.0941-0.25878 0.31397l-0.02166 0.08245q-0.01832-0.0048-0.02989 0.0019-0.02073 0.0043-0.02989 0.0019 0 0-0.02073 0.0043-0.03905-4.66e-4 -0.07135 0.01064l0.28643-1.0902 0.28643-1.0902q0.0092 0.0024 0.01592 0.01398 0.0092 0.0024 0.04099 0.03036 0.02508 0.01638 0.05691 0.04433l-0.02407 0.09161q-0.05777 0.21987 0.07344 0.39146 0.1288 0.18074 0.39448 0.25055l4.4433 1.1674q0.26568 0.0698 0.45753-0.0267 0.1986-0.08493 0.26553-0.3024l0.02407-0.09161q0.09208-0.01498 0.11522-0.02849 0.02073-0.0043 0.03905 4.66e-4 -0.04767 0.14418-0.091 0.30908-0.04332 0.1649-0.08665 0.32981l0.0092 0.0024-0.23588 0.89781-0.0092-0.0024q-0.04332 0.1649-0.08665 0.32981-0.04333 0.1649-0.07268 0.31389-0.01832-0.0048-0.08439-0.05155-0.05691-0.04433-0.04534-0.05109l0.02166-0.08245q0.0486-0.22228-0.0802-0.40302-0.11964-0.17834-0.38532-0.24814l-2.0338-0.53434-0.81836 3.1149 2.0338 0.53434q0.26568 0.0698 0.45753-0.0267 0.1986-0.08493 0.26553-0.3024l0.02407-0.09161q0.09208-0.01498 0.11522-0.02849 0.02073-0.0043 0.03905 4.66e-4 -0.04767 0.14418-0.091 0.30908t-0.08665 0.32981l0.0092 0.0024-0.23588 0.89781-0.0092-0.0024q-0.04333 0.1649-0.08665 0.32981-0.04332 0.1649-0.07268 0.31389z"/>
  <path d="m93.314 74.199q-0.01687-0.0086-0.05025-0.06822-0.02512-0.03411-0.04612-0.05547l0.0474-0.09279q0.10792-0.23206 4e-3 -0.46596-0.09545-0.22959-0.37381-0.37179l-3.1717-1.6203q-0.35428-0.18099-0.5978-0.43304-0.24352-0.25205-0.33805-0.58754-0.08609-0.33118-0.01889-0.75422 0.07133-0.4103 0.32989-0.91642 0.27149-0.53142 0.58763-0.83793 0.32457-0.3022 0.68142-0.41773 0.36097-0.10278 0.7544-0.04007 0.39343 0.06271 0.80676 0.27387l3.0114 1.5384q0.24462 0.12497 0.45266 0.0717 0.21647-0.04896 0.32833-0.2471l0.04309-0.08435q0.03392-0.0039 0.07197 0.0049 0.06354 5.51e-4 0.08041 0.0092-0.07738 0.13066-0.15495 0.28249-0.07757 0.15183-0.15514 0.30367l0.0084 0.0043-0.42231 0.82665-0.0084-0.0043q-0.07757 0.15183-0.15514 0.30367-0.07757 0.15184-0.13808 0.29111l-0.08793-0.11938 0.04309-0.08435q0.09499-0.20676 0.0078-0.41085-0.08307-0.19135-0.32769-0.31632l-3.1716-1.6204q-0.62421-0.31889-1.1503-0.22601-0.52198 0.10562-0.86672 0.78044-0.20685 0.40489-0.26058 0.73909-0.04529 0.33851 0.04135 0.60615 0.09077 0.28038 0.30073 0.49401t0.51363 0.36877l3.142 1.6158q0.27011 0.11672 0.4952 0.05089 0.23353-0.06152 0.35832-0.28496l0.05171-0.10122q0.03392-0.0039 0.07628-0.0036 0.08472 7.34e-4 0.08472 7.34e-4 -0.09031 0.15596-0.18512 0.34154-0.09911 0.19401-0.17687 0.36702l-0.12066 0.23619q-0.09462 0.1644-0.18512 0.34154-0.0905 0.17714-0.15963 0.33328z"/>
  <path d="m89.92 76.819q0.0043-0.02074-0.0062-0.05322-0.0031-0.02661-0.0078-0.06653-0.01054-0.03249-0.01365-0.0591 0.25416 0.21308 0.55877 0.45399 0.30617 0.25421 0.5529 0.46142l0.09659 0.07639q-0.01486-0.01175-0.04701 0.05944-0.03249 0.01054-0.04113 0.05201l-0.01763 0.02229-3.0965 3.9154q-0.03249 0.01054-0.04701 0.05944-0.05599 0.04026-0.04113 0.05201-0.06376-0.02627-0.09658-0.07639-0.26436-0.18492-0.5764-0.4317-0.31049-0.23348-0.57052-0.43913 0.04735 0.0012 0.11387-0.0066 0.02661-0.0031 0.04734 0.0012l0.44752 0.13655q0.34973 0.10752 0.69533 0.0065 0.3456-0.10105 0.55713-0.36852l0.54057-0.68352-4.012-3.1729q-0.22133-0.16297-0.43733-0.16472-0.22187 0.0057-0.36289 0.18399l-0.05288 0.06687q-0.01486-0.01175-0.02816-0.0102-0.02074-0.0043-0.02817-0.0102 0 0-0.02074-0.0043-0.03559-0.01607-0.06963-0.01884l1.3984-1.7682q0.01641 0.02506 0.03438 0.06342 0.03593 0.07672 0.03593 0.07672l-0.05876 0.0743q-0.14102 0.17831-0.08955 0.38809 0.0456 0.21721 0.26105 0.38761l4.012 3.1729 0.5347-0.67609q0.21153-0.26747 0.23023-0.62705 0.0187-0.35958-0.1665-0.67513l-0.236-0.40402zm-3.34 4.0247-0.0059 0.0074z"/>
  <path d="m78.539 82.414q-0.38511 0.32207-0.52991 0.73952-0.14599 0.4308-0.08696 0.90005 0.05904 0.46925 0.2988 0.94789 0.23857 0.49198 0.61533 0.94248 0.37676 0.4505 0.81878 0.77233 0.43476 0.32791 0.88617 0.46901t0.89516 0.06635q0.44256-0.06142 0.82767-0.38348 0.38511-0.32207 0.5311-0.75287 0.1448-0.41746 0.08577-0.88671-0.05904-0.46925-0.29761-0.96123-0.24584-0.4859-0.6226-0.9364t-0.81152-0.77841q-0.43595-0.31456-0.88736-0.45567t-0.89397-0.07969q-0.44375 0.07476-0.82886 0.39682zm4.2064 0.26066q0.40714 0.48683 0.62642 1.0443 0.21202 0.56358 0.19482 1.1336-0.01838 0.58339-0.29636 1.1369-0.27916 0.56687-0.86046 1.053t-1.1813 0.65456q-0.60123 0.18176-1.1714 0.09059-0.57137-0.07783-1.0813-0.39226-0.51719-0.30836-0.92433-0.79519-0.40714-0.48683-0.61916-1.0504-0.21928-0.5575-0.2009-1.1409 0.01719-0.57005 0.29636-1.1369 0.27797-0.55352 0.85927-1.0397 0.58129-0.48614 1.1825-0.6679 0.60004-0.16842 1.1714-0.09059 0.57018 0.09117 1.0874 0.39953 0.50993 0.31443 0.91707 0.80127z"/>
  <path d="m71.776 93.533q0.20378-0.03566 0.34015-0.10179 0.49433-0.23973 0.65236-0.69535 0.15364-0.44297-0.09436-0.95434-0.0744-0.15341-0.25934-0.27427-0.18081-0.11234-0.44271-0.17482-0.27043-0.05835-0.60077-0.06658-0.33886-0.0041-0.71647 0.04216-0.37347 0.05479-0.72034 0.01246-0.35126-0.02967-0.6421-0.15181-0.29522-0.10948-0.51323-0.29853-0.21801-0.18904-0.33787-0.43621-0.1736-0.35796-0.18628-0.70974-0.02121-0.34764 0.10971-0.66379 0.1224-0.31202 0.39254-0.57988 0.26162-0.26373 0.65367-0.45386 0.44319-0.21493 0.98273-0.33972 0.53954-0.1248 0.98843-0.11089l0.51822 1.2857-0.15187-0.05268q-0.0545-0.04726-0.11727-0.11157-0.05863-0.05578-0.10461-0.10718-0.36421-0.36027-0.84565-0.48472-0.48584-0.11179-0.9453 0.04787-0.06379 0.02041-0.11493 0.04521-0.05966 0.02893-0.1108 0.05373-0.51137 0.248-0.68594 0.66952-0.17895 0.43419 0.04425 0.89442 0.0868 0.17898 0.28439 0.30423 0.18907 0.12938 0.46363 0.19625 0.27869 0.07539 0.63021 0.08389 0.34713 0.02115 0.73326-0.02925 0.72989-0.10131 1.3077 0.11327 0.5734 0.22724 0.80073 0.696 0.17773 0.36648 0.20721 0.73118 0.02095 0.36882-0.09731 0.68936-0.11413 0.32906-0.37161 0.60131-0.266 0.27638-0.64954 0.46238-0.2983 0.14466-0.74822 0.21547-0.44992 0.07081-0.8859 0.04011l-0.51822-1.2857 0.15187 0.05268q0.10875 0.1157 0.2428 0.24018 0.12967 0.13714 0.23428 0.24431 0.22602 0.22727 0.52563 0.3241 0.30375 0.10535 0.5925 0.04954z"/>
  <path d="m60.9 97.563q-0.0051-0.01825 0.01617-0.08317 0.0081-0.04158 0.0096-0.0715l0.10037-0.02796q0.24383-0.07774 0.34559-0.31257 0.1043-0.2257 0.02043-0.52683l-0.95556-3.431q-0.10674-0.38325-0.08619-0.73312 0.02055-0.34987 0.20339-0.64661 0.18538-0.28762 0.54218-0.52465 0.35021-0.22536 0.89771-0.37784 0.57487-0.16011 1.0145-0.13505 0.44216 0.03418 0.76882 0.21852 0.32007 0.19601 0.54035 0.52797 0.22028 0.33196 0.34481 0.77908l0.90727 3.2576q0.0737 0.26462 0.25378 0.38163 0.18262 0.12613 0.40416 0.07426l0.09125-0.02541q0.02587 0.02229 0.04517 0.05625 0.04262 0.04713 0.04771 0.06538-0.14854 0.03154-0.31279 0.07728-0.16425 0.04574-0.3285 0.09149l0.0025 0.0091-0.89425 0.24906-0.0025-0.0091q-0.16425 0.04574-0.3285 0.09149-0.16425 0.04574-0.30771 0.09553l0.02829-0.14554 0.09125-0.02541q0.21646-0.07012 0.30759-0.27249 0.08455-0.1907 0.01085-0.45533l-0.95556-3.431q-0.18806-0.67525-0.61267-0.99946-0.4312-0.31255-1.1612-0.10924-0.438 0.12199-0.72029 0.30877-0.27975 0.19591-0.41801 0.4409-0.14484 0.25666-0.15985 0.55582-0.01501 0.29916 0.07648 0.62766l0.93881 3.4062q0.09703 0.27779 0.2979 0.39884 0.20341 0.13017 0.45233 0.07068l0.1095-0.0305q0.02587 0.02229 0.05429 0.05371 0.05683 0.06283 0.05683 0.06283-0.17592 0.03916-0.37666 0.09507-0.20988 0.05845-0.38983 0.1184l-0.2555 0.07116q-0.18504 0.0417-0.37666 0.09507-0.19162 0.05337-0.35333 0.10824z"/>
  <path d="m50.317 95.493q7e-3 -0.03843 0.02343-0.07747 0.01644-0.03904 0.02528-0.04911 0.0088-0.01007 0.0082-0.01952l0.08507-0.0055q0.22685-0.01479 0.35755-0.19417 0.13069-0.17938 0.11283-0.4535l-0.10351-1.588q0.21823-0.14712 0.4944-0.27903 0.26672-0.13129 0.56365-0.23608 0.28809-0.09472 0.5881-0.15224 0.29939-0.06698 0.58296-0.08546 0.69946-0.04559 1.2908 0.14368 0.59137 0.18927 1.0338 0.56861 0.43355 0.3894 0.69799 0.9512 0.25498 0.56241 0.30058 1.2619 0.04621 0.70891-0.13361 1.2997-0.18927 0.59137-0.56922 1.0243-0.38879 0.443-0.9512 0.69799-0.5618 0.26444-1.2613 0.31003-0.26466 0.01725-0.56076-0.01091-0.30493-0.01809-0.59404-0.08468-0.29795-0.05652-0.57945-0.15208-0.29034-0.08549-0.52582-0.20304l0.0095-1.3106 0.12082 0.10603q0.02383 0.07439 0.05712 0.14816 0.0339 0.08322 0.06657 0.14754 0.19211 0.47159 0.61067 0.77654 0.4091 0.30557 0.88664 0.35038 0.13356 0.01028 0.25706 0.01172 0.1235 0.0014 0.23692-0.0059 0.47261-0.03081 0.8466-0.26402 0.37398-0.23321 0.62284-0.63862 0.24947-0.39596 0.36559-0.94459 0.11673-0.53918 0.07422-1.1914-0.04251-0.6522-0.22825-1.1717-0.18574-0.51947-0.48511-0.88914-0.29876-0.36022-0.69985-0.54291-0.4011-0.18269-0.8737-0.15188-0.34028 0.02218-0.7046 0.11237-0.37378 0.09081-0.72495 0.2371l0.1109 1.7014q0.01787 0.27411 0.17074 0.43501 0.14342 0.16151 0.37973 0.14611l0.08507-0.0055 0.07541 0.13747-2.1551 0.14048z"/>
  <path d="m40.844 91.824q-0.01217-0.04954-0.01892-0.06961-0.0067-0.02008-0.01892-0.06961l0.52529 0.07378 1.9136 0.26878q-0.06814 0.07652-0.08015 0.09396-0.0214 0.01613-0.03341 0.03357l-0.15008-0.02108q-0.26264-0.03689-0.38691 0.0987-0.12426 0.13559-0.08348 0.39001l0.34773 1.4741 2.1293 0.29909 0.58006-1.1333q0.16938-0.32056 0.07642-0.54405-0.09296-0.22349-0.41188-0.26829l-0.12194-0.01713q-0.04442-0.09233-0.04985-0.12179-0.01613-0.02139-0.02419-0.03209l1.876 0.26351q-0.0013 0.0094-0.01201 0.01744-0.0013 0.0094-0.02535 0.04427-0.01333 0.02682-0.03736 0.06171l-0.08442-0.01186q-0.2345-0.03294-0.44582 0.10955-0.2207 0.14117-0.36209 0.39871l-2.6952 5.1597-0.22512-0.03162-1.4818-5.7942q-0.07699-0.26908-0.24219-0.45489-0.16652-0.17643-0.3635-0.2041l-0.07504-0.01054zm2.7439 5.3211 1.2841-2.5362-1.9591-0.28476z"/>
  <path d="m30.576 94.835q0.0063-0.01787 0.06089-0.05891 0.03045-0.02945 0.04881-0.05312l0.08042 0.0283q0.21759 0.06652 0.40821-0.04715 0.18748-0.10474 0.27865-0.36386l1.8361-5.2182 0.32167 0.11318 0.16976 0.60198 1.6376 5.848 1.5091-4.2889q0.09118-0.25912 0.01374-0.46712t-0.29188-0.28345l-0.08042-0.0283-0.01539-0.15604 0.7595 0.26724 0.75056 0.2641q-0.0551 0.07099-0.07033 0.08571-0.02416 0.01158-0.03938 0.02631l-0.08042-0.0283q-0.21445-0.07546-0.40507 0.03822-0.19062 0.11367-0.2818 0.3728l-1.5249 4.3336q-0.09118 0.25912-0.0106 0.45818 0.07744 0.208 0.28874 0.29239l0.08042 0.0283q0.0084 0.03309 0.01373 0.07512 0.01423 0.04517 0.0017 0.08091-0.29751-0.12477-0.6344-0.22323l-0.79524-0.27982-1.5633-5.6311-1.3394 3.8064q-0.09118 0.25912-0.0106 0.45818 0.07744 0.20799 0.28874 0.29239l0.08042 0.0283q0.0084 0.03309 0.01373 0.07512 0.01423 0.04517 0.0017 0.08091-0.29751-0.12477-0.6344-0.22322l-0.25912-0.09118q-0.32432-0.1342-0.62547-0.22008z"/>
  <path d="m21.793 90.078q0.0097-0.01627 0.07135-0.04568 0.03568-0.02284 0.05836-0.0424l0.0895 0.05336q0.22452 0.12283 0.4647 0.03444 0.23533-0.08026 0.3954-0.34874l1.8239-3.0591q0.20373-0.34171 0.47114-0.56826 0.26741-0.22655 0.60835-0.29898 0.33609-0.0643 0.75385 0.03038 0.40477 0.09796 0.89293 0.389 0.51257 0.3056 0.79779 0.64107 0.28037 0.34361 0.37236 0.70723 0.079 0.36691-0.0093 0.75541-0.08826 0.3885-0.32594 0.78716l-1.7317 2.9045q-0.14067 0.23594-0.10109 0.44702 0.03473 0.21921 0.22514 0.34376l0.08136 0.04851q0.0017 0.03411-0.0095 0.0715-0.0047 0.06337-0.0144 0.07964-0.12532-0.08575-0.27177-0.17306-0.14645-0.08731-0.2929-0.17462l-0.0049 0.0081-0.79733-0.47537 0.0049-0.0081q-0.14645-0.08731-0.2929-0.17463-0.14645-0.08731-0.28147-0.15679l0.12486-0.07995 0.08136 0.04851q0.20012 0.10828 0.40947 0.03459 0.19637-0.0704 0.33704-0.30634l1.8239-3.0591q0.35895-0.60206 0.30061-1.1331-0.07133-0.52776-0.72221-0.91582-0.39053-0.23283-0.72051-0.30826-0.33483-0.06729-0.60755 0.0017-0.28571 0.07228-0.51259 0.26785-0.22688 0.19557-0.40151 0.48847l-1.8174 3.0299q-0.1341 0.26192-0.0831 0.49083 0.04615 0.23705 0.26097 0.37615l0.09763 0.05821q0.0017 0.03411-0.0014 0.07635-0.0063 0.08449-0.0063 0.08449-0.14973-0.1003-0.32872-0.20702-0.18713-0.11157-0.3547-0.20044l-0.22781-0.13582q-0.15787-0.10515-0.32872-0.20702t-0.32215-0.18104z"/>
  <path d="m13.009 82.612q0.01297-0.01381 0.03975-0.01465 0.01987-0.0073 0.10585-0.04354l0.06215 0.05836q0.15149 0.12926 0.34542 0.11646 0.18054-0.01238 0.34349-0.15823l3.1156-3.6362q0.14787-0.19898 0.14804-0.40673 1.68e-4 -0.20774-0.15865-0.35688l-0.06215-0.05836q0.01903-0.0341 0.04244-0.14206l1.6365 1.5367q-0.04623 0.02156-0.0661 0.02888-0.01987 0.0073-0.0661 0.02888l-0.06905-0.06484q-0.15191-0.14265-0.33894-0.12336-0.18703 0.01928-0.36942 0.18585l-3.132 3.5429 5.3636-2.4739 0.17263 0.1621-0.1541 0.42702-1.6857 4.7841 2.9055-2.859q0.24724-0.23562 0.24488-0.52369-0.0024-0.28808-0.24404-0.51502l-0.09667-0.09078q0.01693-0.10105 0.02947-0.12825-8.42e-4 -0.02678-0.0013-0.04017l0.71123 0.66786 0.09667 0.09078 0.58003 0.54466q-0.04623 0.02156-0.0661 0.02888-0.01987 0.0073-0.0661 0.02888l-0.06905-0.06484q-0.16572-0.15562-0.38601-0.12859-0.2272 0.02055-0.42214 0.21431l-3.2954 3.2465q-0.17507 0.18644-0.18214 0.3877-0.01356 0.20816 0.13878 0.3642l0.06215 0.05836q-0.0056 0.03368-0.01777 0.07427-0.0052 0.04707-0.03116 0.07469-0.2149-0.22778-0.48336-0.45388l-0.10358-0.09726-0.44193-0.41498 1.9015-5.1661-4.919 2.3326-0.22787-0.21398-0.07596-0.07132-0.31073-0.29178 0.0065-0.0069q-0.12428-0.1167-0.24858-0.23341-0.12429-0.11671-0.23435-0.20707zm6.0101-1.3081 0.01255-0.0272z"/>
  <path d="m11.887 71.025q0.0285-0.0423 0.03884-0.06079t0.03884-0.06079l1.3853 2.0363q-0.10245 9.61e-4 -0.12344 0.0038-0.02632-5e-3 -0.04731-0.0022l-0.08525-0.12531q-0.14918-0.21929-0.3331-0.22019-0.18392-9.02e-4 -0.34492 0.20028l-0.8579 1.2481 1.2095 1.7778 1.2291-0.33206q0.35121-0.09 0.45424-0.30902 0.10303-0.21903-0.07812-0.48531l-0.06926-0.10181q0.03852-0.09494 0.05668-0.11876 5e-3 -0.02632 0.0075-0.03948l0.71928 1.0573 0.34632 0.50906q-0.0078 0.0053-0.02099 0.0028-0.0078 0.0053-0.04982 0.01098-0.02882 0.0082-0.07081 0.0138l-0.04795-0.07049q-0.1332-0.19579-0.38073-0.25652-0.25286-0.06856-0.53859-2e-4l-5.6321 1.4716-0.12787-0.18796 3.295-4.9912q0.14752-0.23784 0.1741-0.48505 0.01875-0.24188-0.09314-0.40635l-0.04262-0.06265zm-2.0965 5.6078 2.741-0.75347-1.1057-1.6422z"/>
  <path d="m4.671 61.159q0.69778-0.2123 1.3478 0.13447 0.64553 0.34815 0.85783 1.0459 0.2123 0.69778-0.12994 1.3465-0.34815 0.64553-1.0459 0.85783-0.69778 0.2123-1.3419-0.13132-0.65006-0.34677-0.86236-1.0446-0.2123-0.69778 0.13447-1.3478 0.34224-0.64868 1.04-0.86099z"/>
  <path d="m0.60282 46.135q-0.070088 0.19464-0.080285 0.34586-0.036964 0.54815 0.28032 0.91132 0.30847 0.35308 0.87552 0.39132 0.17011 0.01147 0.36678-0.08919 0.18721-0.1013 0.37135-0.29775 0.18477-0.2059 0.35574-0.48867 0.17161-0.29223 0.31868-0.64307 0.13763-0.35148 0.3464-0.63171 0.19996-0.29032 0.45025-0.4823 0.24148-0.20207 0.51375-0.29764 0.27227-0.09557 0.54634-0.07708 0.39693 0.02677 0.7087 0.1902 0.3124 0.15398 0.52202 0.42445 0.21025 0.26102 0.30889 0.62843 0.09928 0.35796 0.069964 0.7927-0.03314 0.49144-0.19233 1.0219-0.15919 0.53041-0.39387 0.91332l-1.3734-0.18756 0.12106-0.10576q0.068067-0.02389 0.15504-0.04651 0.077518-0.02325 0.14495-0.03769 0.49346-0.13761 0.84028-0.49398 0.33801-0.36645 0.42721-0.84462 0.013912-0.06552 0.017736-0.12222 0.00446-0.06615 0.00828-0.12286 0.038238-0.56705-0.24124-0.92767-0.28829-0.37071-0.79863-0.40513-0.19847-0.013384-0.40522 0.096093-0.20611 0.10003-0.40034 0.30529-0.20367 0.20462-0.38537 0.50566-0.19051 0.29095-0.33822 0.65125-0.27398 0.68406-0.74685 1.0794-0.48168 0.38524-1.0015 0.35019-0.40638-0.027404-0.73769-0.18266-0.33067-0.1647-0.55037-0.42636-0.22915-0.26229-0.33788-0.62089-0.10809-0.36805-0.079415-0.79334 0.022306-0.33078 0.18393-0.75659 0.16163-0.42581 0.40449-0.78919l1.3734 0.18755-0.12106 0.10576q-0.1544 0.03706-0.32897 0.09174-0.18339 0.0446-0.32834 0.08229-0.30944 0.08357-0.5421 0.29573-0.24211 0.21152-0.33684 0.48995z"/>
  <path d="m2.7767 33.797q0.018274 5e-3 0.083877 0.05239 0.056465 0.0449 0.044831 0.05154l-0.02248 0.08223q-0.05081 0.22179 0.076188 0.4038 0.11786 0.17952 0.38283 0.25195l4.4314 1.2114q0.26497 0.07244 0.46691-0.01966 0.20193-0.09209 0.26188-0.31138l0.02248-0.08223q0.018274 5e-3 0.029909-0.0016 0.020772-0.0041 0.029909-0.0016 0 0 0.020772-0.0041 0.039046 8.55e-4 0.071452-0.0099l-0.29724 1.0873-0.29724 1.0873q-0.00914-0.0025-0.015776-0.01413-0.00914-0.0025-0.040689-0.03076-0.024913-0.01663-0.056465-0.0449l0.024978-0.09137q0.059946-0.21945-0.069551-0.39233-0.127-0.18202-0.39197-0.25445l-2.1746-0.59448-0.84925 3.1066 2.1746 0.59448q0.26497 0.07244 0.46691-0.01966t0.26188-0.31138l0.02248-0.08223q0.018274 5e-3 0.029909-0.0016 0.020772-0.0041 0.029909-0.0016 0 0 0.020772-0.0041 0.039046 8.54e-4 0.071452-0.0099l-0.17485 0.63943-0.12239 0.44771-0.29724 1.0873q-0.00914-0.0025-0.015776-0.01413-0.00914-0.0025-0.040689-0.03076-0.024913-0.01663-0.056466-0.0449l0.024978-0.09137q0.059947-0.21929-0.069549-0.39217-0.127-0.18202-0.39197-0.25445l-4.4314-1.2114q-0.26497-0.072437-0.45777 0.022156-0.19944 0.082957-0.26852 0.29975l-0.024978 0.09137q-0.092224 0.01407-0.11549 0.02735-0.020772 0.0041-0.039046-8.54e-4 0.049102-0.14369 0.094062-0.30816t0.089921-0.32893l-0.00914-0.0025 0.24478-0.89542 0.00914 0.0025q0.04496-0.16447 0.089921-0.32893 0.04496-0.16446 0.075788-0.31316 0.018274 5e-3 0.083877 0.05239 0.056465 0.04489 0.044831 0.05153l-0.02248 0.08223q-0.05081 0.22178 0.076189 0.4038 0.11786 0.17952 0.38283 0.25195l2.0284 0.55451 0.84925-3.1066-2.0284-0.55451q-0.26497-0.07244-0.45777 0.02216-0.19944 0.08296-0.26852 0.29975l-0.024978 0.09137q-0.092224 0.01407-0.11549 0.02735-0.020772 0.0041-0.039046-8.55e-4 0.049102-0.14369 0.094062-0.30816 0.04496-0.16447 0.089921-0.32893l-0.00914-0.0025 0.24478-0.89542 0.00914 0.0025q0.04496-0.16447 0.089921-0.32893 0.04496-0.16447 0.075788-0.31316z"/>
  <path d="m7.1058 24.718q0.016785 0.0088 0.049573 0.0687 0.024786 0.03435 0.045572 0.05592l-0.048311 0.09232q-0.11019 0.23099-0.00861 0.46589 0.093188 0.23051 0.37014 0.37544l3.1556 1.6514q0.35249 0.18446 0.59352 0.43889 0.24104 0.25443 0.33227 0.59082 0.08284 0.332 0.01148 0.75437-0.07536 0.40958-0.33887 0.91313-0.27669 0.52873-0.59582 0.83212-0.32752 0.299-0.68549 0.41102-0.36197 0.09923-0.75476 0.03266t-0.80403-0.28178l-2.9961-1.5679q-0.24338-0.12736-0.45194-0.07614-0.21694 0.04683-0.33074 0.24386l-0.043919 0.08392q-0.033962 0.0036-0.071924-0.0056-0.063531-0.0012-0.080316-0.01 0.078663-0.12989 0.15772-0.28096 0.079054-0.15106 0.15811-0.30213l-0.00839-0.0044 0.43041-0.82247 0.00839 0.0044q0.079054-0.15107 0.15811-0.30213 0.079054-0.15107 0.14093-0.28974l0.086752 0.12024-0.043919 0.08392q-0.097013 0.20581-0.011826 0.41076 0.081186 0.19216 0.32457 0.31952l3.1556 1.6514q0.62105 0.325 1.148 0.23729 0.52299-0.10049 0.87434-0.7719 0.21081-0.40284 0.26782-0.7365 0.04862-0.33805-0.0354-0.60652-0.08801-0.28126-0.29587-0.49694-0.20786-0.21568-0.50999-0.37379l-3.126-1.6465q-0.26895-0.11936-0.49468-0.05574-0.23412 0.05923-0.3611 0.28143l-0.052703 0.10071q-0.033962 0.0036-0.076315 0.0028-0.084708-0.0016-0.084708-0.0016 0.091839-0.15507 0.18846-0.3397 0.10101-0.19303 0.18046-0.36527l0.061487-0.1175 0.061487-0.1175q0.096231-0.16346 0.18846-0.3397 0.09223-0.17624 0.16289-0.3317z"/>
  <path d="m10.525 22.132q-0.0045 0.02069 0.0057 0.05328 0.0029 0.02664 0.0071 0.0666 0.01022 0.03259 0.01307 0.05923-0.25206-0.21553-0.55434-0.45936-0.3037-0.25715-0.54842-0.46673l-0.095844-0.07731q0.014745 0.01189 0.047577-0.05898 0.032587-0.01022 0.04163-0.05161l0.017841-0.02212 3.1341-3.8854q0.03259-0.01022 0.04758-0.05898 0.05638-0.03971 0.04163-0.05161 0.0635 0.02689 0.09584 0.07731 0.26256 0.18746 0.57221 0.43724 0.30822 0.23646 0.56626 0.44461-0.04733-0.0017-0.11393 0.0055-0.02664 0.0029-0.04733-0.0017l-0.44619-0.14086q-0.34867-0.11088-0.69523-0.01317-0.34656 0.09771-0.56066 0.36313l-0.54714 0.67828 3.9812 3.2115q0.21975 0.16509 0.43572 0.16893 0.22191-0.0035 0.36464-0.18048l0.05352-0.06635q0.01475 0.01189 0.02807 0.01047 0.02069 0.0045 0.02806 0.01047 0 0 0.02069 0.0045 0.03544 0.01642 0.06945 0.01951l-1.4154 1.7547q-0.01617-0.02521-0.03377-0.06375-0.03519-0.07707-0.03519-0.07707l0.05947-0.07373q0.14273-0.17694 0.09328-0.38721-0.0435-0.21764-0.25731-0.3901l-3.9812-3.2115-0.54119 0.67091q-0.2141 0.26541-0.23626 0.6248-0.02216 0.35939 0.15999 0.6767l0.23209 0.40628zm3.3787-3.9924 0.0059-0.0074z"/>
  <path d="m21.958 16.646q0.38815-0.31839 0.53692-0.73445 0.15009-0.42939 0.09552-0.89918-0.05457-0.46979-0.28976-0.95069-0.23388-0.49423-0.60633-0.94829t-0.81139-0.78009q-0.43162-0.33203-0.88166-0.47742-0.45004-0.1454-0.89449-0.07486-0.44313 0.0572-0.83128 0.37559-0.38815 0.31839-0.53824 0.74778-0.14877 0.41606-0.0942 0.88585 0.05457 0.46979 0.28845 0.96402 0.2412 0.48822 0.61366 0.94229 0.37245 0.45407 0.80407 0.7861 0.43293 0.3187 0.88298 0.4641t0.89317 0.08819q0.44444-0.07053 0.8326-0.38892zm-4.2038-0.30068q-0.40249-0.49068-0.61646-1.0502-0.20664-0.56557-0.18402-1.1354 0.02393-0.58319 0.30716-1.134 0.28455-0.56418 0.87044-1.0448 0.58589-0.48058 1.1875-0.64328 0.60293-0.17603 1.1722-0.07944 0.5706 0.08327 1.0775 0.40254 0.51424 0.31327 0.91672 0.80395 0.40249 0.49068 0.60913 1.0563 0.21396 0.55956 0.19003 1.1428-0.02262 0.56986-0.30716 1.134-0.28323 0.55085-0.86912 1.0314t-1.1888 0.65662q-0.60162 0.1627-1.1722 0.07943-0.56928-0.0966-1.0835-0.40986-0.50691-0.31927-0.9094-0.80996z"/>
  <path d="m28.826 5.5927q-0.20411 0.033727-0.3411 0.098563-0.49658 0.23503-0.65892 0.68913-0.15783 0.44149 0.08531 0.95519 0.07294 0.15411 0.25673 0.27672 0.17973 0.11405 0.44103 0.17901 0.26986 0.060909 0.60011 0.072276 0.33881 0.00732 0.71684-0.035369 0.37397-0.051245 0.72043-0.00563 0.35097 0.033 0.64063 0.15789 0.29417 0.11228 0.51038 0.30338 0.2162 0.1911 0.33372 0.43939 0.17019 0.35959 0.17955 0.71147 0.01791 0.34783-0.116 0.66272-0.12535 0.31084-0.39802 0.57613-0.2641 0.26124-0.65794 0.44764-0.44521 0.21072-0.98591 0.33039-0.5407 0.11968-0.98944 0.10151l-0.50601-1.2905 0.15137 0.05411q0.05405 0.04777 0.11621 0.11267 0.0581 0.05634 0.10359 0.10816 0.36078 0.36371 0.84102 0.49271 0.48475 0.11639 0.94572-0.0389 0.06398-0.0198 0.11535-0.04412 0.05993-0.02837 0.1113-0.05268 0.5137-0.24314 0.69225-0.66299 0.18305-0.43246-0.035768-0.8948-0.085098-0.1798-0.2815-0.30691-0.18784-0.13117-0.46175-0.20064-0.27796-0.078032-0.62939-0.089857-0.34692-0.024438-0.7335 0.022297-0.73082 0.094386-1.3066-0.12566-0.57122-0.23266-0.7941-0.70356-0.17425-0.36815-0.20026-0.73311-0.01746-0.36901 0.10384-0.68841 0.11724-0.32796 0.3773-0.59776 0.26861-0.27385 0.65389-0.4562 0.29966-0.14183 0.75023-0.20837t0.88624-0.031711l0.50601 1.2905-0.15137-0.054113q-0.10764-0.11673-0.24052-0.24247-0.12836-0.13836-0.23196-0.24652-0.22385-0.2294-0.52253-0.32906-0.30274-0.10823-0.592-0.055153z"/>
  <path d="m39.74 1.665q0.0049 0.018297-0.01695 0.083009-0.0085 0.041504-0.01026 0.071405l-0.10064 0.027006q-0.24456 0.075436-0.34852 0.30929-0.10642 0.22471-0.02541 0.52661l0.92311 3.4399q0.10311 0.38424 0.07926 0.7339-0.02386 0.34966-0.20949 0.64466-0.18809 0.28585-0.54711 0.5195-0.35232 0.22204-0.90124 0.36935-0.57636 0.15467-1.0157 0.12546-0.44182-0.038354-0.76672-0.22577-0.31821-0.19902-0.53534-0.53305-0.21714-0.33403-0.33743-0.78231l-0.87646-3.266q-0.0712-0.26531-0.25016-0.38401-0.18142-0.12785-0.40344-0.078075l-0.09149 0.024551q-0.02566-0.022536-0.04463-0.056675-0.04218-0.047526-0.04709-0.065823 0.14883-0.030133 0.31351-0.074324 0.16467-0.044191 0.32935-0.088383l-0.0025-0.00915 0.89656-0.2406 0.0025 0.00915q0.16467-0.044191 0.32935-0.088383 0.16467-0.044191 0.3086-0.092621l-0.02967 0.14527-0.09149 0.024551q-0.21711 0.06807-0.31015 0.26957-0.08634 0.1899-0.01515 0.4552l0.92311 3.4399q0.18168 0.67699 0.6032 1.0052 0.42822 0.31661 1.1601 0.1202 0.43913-0.11784 0.72318-0.30195 0.28159-0.19326 0.42215-0.43693 0.14726-0.25528 0.16509-0.55429 0.01783-0.29901-0.07055-0.62836l-0.90658-3.4149q-0.094404-0.2787-0.29412-0.40163-0.20217-0.13209-0.45164-0.074948l-0.10978 0.029461q-0.02566-0.022536-0.05378-0.05422-0.05624-0.063368-0.05624-0.063368 0.17628-0.037498 0.37755-0.09151 0.21042-0.056467 0.39093-0.11472l0.25616-0.068742q0.18543-0.039953 0.37755-0.09151 0.19212-0.051557 0.35434-0.1049z"/>
  <path d="m50.302 3.8342q-0.0073 0.038359-0.02414 0.077246-0.0168 0.038887-0.02573 0.048874-0.0089 0.00999-0.0084 0.019444l-0.08512 0.00476q-0.22698 0.012689-0.35933 0.19085-0.13235 0.17817-0.11701 0.45243l0.08882 1.5889q-0.21958 0.14509-0.49696 0.27444-0.26792 0.12882-0.5658 0.23086-0.28895 0.092049-0.58948 0.1468-0.3 0.064206-0.58372 0.080066-0.69985 0.039123-1.2894-0.15561-0.5896-0.19473-1.0285-0.57814-0.42993-0.3934-0.68916-0.95761-0.24977-0.56475-0.2889-1.2646-0.039652-0.70931 0.14562-1.2984 0.19473-0.5896 0.57867-1.019 0.39287-0.43939 0.95761-0.68916 0.56422-0.25923 1.2641-0.29835 0.26481-0.014803 0.56064 0.016094 0.30475 0.020912 0.59324 0.090168 0.29741 0.05927 0.57802 0.15743 0.28954 0.088172 0.52392 0.20789l-0.02162 1.3104-0.11983-0.10715q-0.02314-0.074603-0.05575-0.14868-0.03313-0.083531-0.0652-0.14815-0.18774-0.47334-0.60346-0.78215-0.40626-0.30934-0.88337-0.35856-0.13346-0.011513-0.25694-0.014098-0.12348-0.002584-0.23697 0.00376-0.47287 0.026435-0.849 0.25618-0.37613 0.22974-0.62872 0.63283-0.25312 0.39363-0.3743 0.94117-0.12171 0.53808-0.08523 1.1906 0.03648 0.65257 0.21741 1.1737 0.18093 0.52116 0.47687 0.89359 0.29542 0.36297 0.6948 0.54936 0.39939 0.18639 0.87226 0.15995 0.34047-0.019033 0.70561-0.10585 0.3746-0.08735 0.72711-0.23039l-0.095164-1.7023q-0.015332-0.27427-0.16671-0.43657-0.14192-0.16283-0.37836-0.14962l-0.08512 0.00476-0.07413-0.13816 2.1563-0.12054z"/>
  <path d="m59.741 7.5911q0.01171 0.049648 0.01826 0.069788 0.0066 0.02014 0.01827 0.069788l-2.4355-0.36538q0.06885-0.075875 0.08103-0.093205 0.02155-0.015924 0.03372-0.033254l0.14988 0.022485q0.26229 0.039348 0.38781-0.095073 0.12553-0.13442 0.08713-0.38922l-0.33392-1.4773-2.1264-0.319-0.59064 1.1278q-0.17237 0.31896-0.08151 0.54331 0.09086 0.22435 0.40935 0.27213l0.12178 0.018269q0.04356 0.092739 0.04871 0.12225 0.01593 0.021545 0.02389 0.032318l-1.8735-0.28106q0.0014-0.00937 0.01218-0.017329 0.0014-0.00937 0.02576-0.044027 0.01358-0.026697 0.03794-0.061356l0.08431 0.012648q0.23418 0.035132 0.44683-0.10538 0.22201-0.1391 0.36581-0.3953l2.7434-5.1343 0.22482 0.033727 1.4275 5.8079q0.07447 0.26978 0.23792 0.45714 0.16486 0.17798 0.36158 0.2075l0.07494 0.011242zm-2.694-5.3465-1.3077 2.524 1.9564 0.30307z"/>
  <path d="m70.038 4.6767q-0.0065 0.01781-0.06145 0.058327-0.03072 0.029163-0.04932 0.05265l-0.08015-0.029056q-0.21695-0.068579-0.40864 0.043286-0.18846 0.10296-0.28209 0.36121l-1.5949 4.3991-0.29056 0.80146-0.32058-0.11623-0.16406-0.60356-1.5821-5.8633-1.5497 4.2744q-0.09363 0.25825-0.01816 0.46697 0.07546 0.20872 0.28919 0.2862l0.08015 0.029056 0.01391 0.15618-1.505-0.54561q0.05577-0.07046 0.07113-0.085042 0.02427-0.011353 0.03963-0.025935l0.08015 0.029056q0.21372 0.077484 0.40541-0.034381 0.19169-0.11186 0.28532-0.37011l1.5658-4.319q0.09363-0.25825 0.01493-0.45806-0.07546-0.20872-0.28596-0.29511l-0.08015-0.029056q-0.0081-0.033172-0.01302-0.075249-0.0138-0.045306-8.87e-4 -0.080926 0.29632 0.12758 0.63226 0.22922l0.79255 0.28734 1.5099 5.6456 1.3753-3.7936q0.09363-0.25825 0.01493-0.45806-0.07546-0.20872-0.28596-0.29511l-0.08015-0.029056q-0.0081-0.033172-0.01302-0.075249-0.0138-0.045306-8.87e-4 -0.080926 0.29632 0.12758 0.63226 0.22922l0.25825 0.093626q0.32303 0.13726 0.62336 0.22599z"/>
  <path d="m78.775 9.5176q-0.0099 0.016179-0.07178 0.045006-0.03589 0.022503-0.05876 0.041844l-0.08899-0.054204q-0.22334-0.12496-0.46435-0.038846-0.23608 0.078022-0.39869 0.34498l-1.8528 3.0417q-0.20696 0.33976-0.47651 0.56377t-0.61116 0.2932q-0.33668 0.0611-0.75352-0.03753-0.40382-0.1018-0.8892-0.39746-0.50964-0.31044-0.79167-0.6486-0.2771-0.34625-0.36563-0.71073-0.07552-0.36765 0.01642-0.75529t0.3334-0.78403l1.7592-2.888q0.1429-0.2346 0.10533-0.44604-0.032646-0.21953-0.22187-0.34588l-0.0809-0.049277q-0.0014-0.034124 0.01023-0.07141 0.0053-0.063321 0.01515-0.0795 0.12451 0.086932 0.27012 0.17563 0.14561 0.088698 0.29123 0.1774l0.0049-0.00809 0.79278 0.48291-0.0049 0.00809q0.14561 0.088698 0.29123 0.1774 0.14561 0.088698 0.27998 0.15945l-0.12562 0.078761-0.0809-0.049277q-0.19908-0.11017-0.40912-0.038477-0.19702 0.068536-0.33993 0.30313l-1.8528 3.0417q-0.36465 0.59863-0.31135 1.1302 0.06632 0.52841 0.71349 0.92262 0.3883 0.23653 0.71755 0.31508 0.33418 0.07047 0.60754 0.0041 0.28638-0.06956 0.51511-0.26297 0.22873-0.19341 0.40612-0.48464l1.8461-3.0125q0.13658-0.26067 0.087759-0.49005-0.043898-0.23747-0.25739-0.37861l-0.09708-0.059132q-0.0014-0.034124 0.0021-0.076338 0.0071-0.084428 0.0071-0.084428 0.14878 0.10172 0.32675 0.21012 0.18606 0.11334 0.35278 0.2038l0.22651 0.13797q0.15686 0.10664 0.32675 0.21012 0.16988 0.10348 0.32042 0.18409z"/>
  <path d="m87.488 17.067q-0.0131 0.01369-0.03988 0.01427-0.01994 0.0071-0.10626 0.04252l-0.06159-0.05895q-0.15025-0.1307-0.3443-0.11975-0.18065 0.01065-0.34498 0.15494l-3.1502 3.6063q-0.14976 0.19756-0.15192 0.4053-0.0022 0.20773 0.15523 0.35838l0.06159 0.05895q-0.01936 0.03392-0.0438 0.14165l-0.47216-0.45192-1.1496-1.1003q0.04643-0.02112 0.06638-0.02825 0.01994-0.0071 0.06638-0.02825l0.06843 0.0655q0.15054 0.14409 0.33775 0.1266 0.1872-0.0175 0.37118-0.18231l3.1657-3.5128-5.387 2.4226-0.17107-0.16374 0.15817-0.42553 1.7313-4.7678-2.9327 2.8311q-0.24948 0.23324-0.24987 0.52133-3.93e-4 0.28809 0.23911 0.51733l0.0958 0.0917q-0.01789 0.10088-0.0307 0.12796 5.86e-4 0.02679 8.8e-4 0.04018l-0.70482-0.67462-0.6706-0.64188q0.04643-0.02111 0.06638-0.02825 0.01994-0.0071 0.06638-0.02825l0.06843 0.0655q0.16423 0.15719 0.38477 0.13226 0.22738-0.01838 0.42416-0.21027l3.3263-3.2149q0.17684-0.18476 0.18584-0.38594 0.01554-0.20802-0.13529-0.36551l-0.06159-0.05895q6e-3 -0.03363 0.01848-0.0741 0.0057-0.04702 0.03187-0.07439 0.21272 0.22983 0.479 0.45848l0.10264 0.09825 0.43794 0.41918-1.9507 5.1477 4.9411-2.2855 0.22582 0.21614 0.07527 0.07205 0.30793 0.29474-0.0065 0.0068q0.12317 0.1179 0.24634 0.23579 0.12317 0.1179 0.23236 0.2093zm-6.0223 1.2507-0.01281 0.02708z"/>
  <path d="m88.498 28.664q-0.02891 0.04202-0.03943 0.06041-0.01051 0.01839-0.03943 0.06041l-1.3654-2.0496q0.10246 3.3e-5 0.12348-0.0026 0.02627 0.0053 0.04729 0.0026l0.08403 0.12613q0.14705 0.22073 0.33095 0.22341 0.1839 0.0027 0.34684-0.19692l0.86998-1.2397-1.1921-1.7895-1.2322 0.32011q-0.35206 0.08658-0.45722 0.3046-0.10516 0.21802 0.0734 0.48604l0.06827 0.10248q-0.03944 0.09456-0.05783 0.1182-0.0053 0.02627-0.0079 0.03941l-0.62496-0.93809-0.08403-0.12613-0.34136-0.5124q0.0079-0.0053 0.02102-0.0026 0.0079-0.0053 0.04992-0.01049 0.0289-0.0079 0.07094-0.01311l0.04727 0.07095q0.13129 0.19708 0.37822 0.26021 0.25218 0.07102 0.53856 0.0054l5.6462-1.4168 0.12604 0.1892-3.3433 4.9589q-0.14982 0.23639-0.1788 0.48333-0.0211 0.24169 0.08919 0.40723l0.04201 0.06306zm2.1508-5.5872-2.7482 0.72682 1.0897 1.6528z"/>
  <path d="m95.616 38.602q-0.69986 0.20536-1.3464-0.14784-0.64204-0.35454-0.84741-1.0544-0.20536-0.69986 0.1433-1.3451 0.35454-0.64204 1.0544-0.8474 0.69986-0.20536 1.3406 0.14463 0.64658 0.35321 0.85195 1.0531 0.20536 0.69985-0.14784 1.3464-0.34866 0.64525-1.0485 0.85062z"/>
 </g>
</svg>
